<svg xmlns="http://www.w3.org/2000/svg" width="72" height="72" viewBox="0 0 72 72" shape-rendering="crispEdges">
<g fill="#CBA6F7">
<!-- 👻 fantasma pixel · lila (el daemon del perfil) -->
<rect x="9" y="0" width="9" height="9"/><rect x="18" y="0" width="9" height="9"/><rect x="27" y="0" width="9" height="9"/><rect x="36" y="0" width="9" height="9"/><rect x="45" y="0" width="9" height="9"/><rect x="54" y="0" width="9" height="9"/><rect x="0" y="9" width="9" height="9"/><rect x="9" y="9" width="9" height="9"/><rect x="18" y="9" width="9" height="9"/><rect x="27" y="9" width="9" height="9"/><rect x="36" y="9" width="9" height="9"/><rect x="45" y="9" width="9" height="9"/><rect x="54" y="9" width="9" height="9"/><rect x="63" y="9" width="9" height="9"/><rect x="0" y="18" width="9" height="9"/><rect x="9" y="18" width="9" height="9"/><rect x="27" y="18" width="9" height="9"/><rect x="36" y="18" width="9" height="9"/><rect x="54" y="18" width="9" height="9"/><rect x="63" y="18" width="9" height="9"/><rect x="0" y="27" width="9" height="9"/><rect x="9" y="27" width="9" height="9"/><rect x="18" y="27" width="9" height="9"/><rect x="27" y="27" width="9" height="9"/><rect x="36" y="27" width="9" height="9"/><rect x="45" y="27" width="9" height="9"/><rect x="54" y="27" width="9" height="9"/><rect x="63" y="27" width="9" height="9"/><rect x="0" y="36" width="9" height="9"/><rect x="9" y="36" width="9" height="9"/><rect x="18" y="36" width="9" height="9"/><rect x="27" y="36" width="9" height="9"/><rect x="36" y="36" width="9" height="9"/><rect x="45" y="36" width="9" height="9"/><rect x="54" y="36" width="9" height="9"/><rect x="0" y="45" width="9" height="9"/><rect x="9" y="45" width="9" height="9"/><rect x="18" y="45" width="9" height="9"/><rect x="27" y="45" width="9" height="9"/><rect x="36" y="45" width="9" height="9"/><rect x="45" y="45" width="9" height="9"/><rect x="0" y="54" width="9" height="9"/><rect x="9" y="54" width="9" height="9"/><rect x="45" y="54" width="9" height="9"/><rect x="54" y="54" width="9" height="9"/><rect x="0" y="63" width="9" height="9"/><rect x="9" y="63" width="9" height="9"/><rect x="45" y="63" width="9" height="9"/><rect x="54" y="63" width="9" height="9"/>
</g>
<g><animateTransform attributeName="transform" type="translate" values="0 0; 0 2; 0 0" dur=".5s" repeatCount="indefinite"/></g>
</svg>
