<svg xmlns="http://www.w3.org/2000/svg" width="1456" height="256" viewBox="0 0 1456 256" fill="none">
<!-- stack-ml · iconos: skill-icons (tandpfun, MIT) + tiles propios -->
  <g transform="translate(0,0)"><svg width="256" height="256" viewBox="0 0 256 256" fill="none" xmlns="http://www.w3.org/2000/svg">
<rect width="256" height="256" rx="60" fill="#242938"/>
<path d="M180.975 90.4153L167.567 103.824C189.508 125.765 189.508 161.115 167.567 182.65C145.625 204.591 110.275 204.591 88.7404 182.65C66.7991 160.709 66.7991 125.359 88.7404 103.824L123.481 69.0835L128.357 64.2077V38L75.9413 90.4153C46.6862 119.67 46.6862 166.804 75.9413 196.059C105.196 225.314 152.33 225.314 180.975 196.059C210.23 166.6 210.23 119.67 180.975 90.4153Z" fill="#EE4C2C"/>
<path d="M154.77 87.1705C160.156 87.1705 164.522 82.8045 164.522 77.4188C164.522 72.0331 160.156 67.667 154.77 67.667C149.385 67.667 145.019 72.0331 145.019 77.4188C145.019 82.8045 149.385 87.1705 154.77 87.1705Z" fill="#EE4C2C"/>
</svg></g>
  <g transform="translate(300,0)">
    <rect width="256" height="256" rx="60" fill="#242938"/>
    <g transform="translate(48,48) scale(6.66667)"><path d="M15.601 5.53c-1.91.035-3.981.91-5.63 2.56-2.93 2.93-2.083 8.53-1.088 9.525.805.804 6.595 1.843 9.526-1.088a9.74 9.74 0 0 0 .584-.643c.043-.292.205-.66.489-1.106a1.848 1.848 0 0 1-.537.176c-.144.265-.37.55-.676.855-.354.335-.607.554-.76.656a.795.795 0 0 1-.437.152c-.35 0-.514-.308-.494-.924-.22.316-.425.549-.612.7a.914.914 0 0 1-.578.224c-.194 0-.36-.09-.496-.273a1.03 1.03 0 0 1-.193-.507 4.016 4.016 0 0 1-.726.583c-.224.132-.47.197-.74.197-.3 0-.543-.096-.727-.288a.978.978 0 0 1-.257-.524v.004c-.3.276-.564.48-.79.611a1.295 1.295 0 0 1-.649.197.693.693 0 0 1-.571-.275c-.145-.183-.218-.43-.218-.739 0-.464.101-1.02.302-1.67.201-.65.445-1.25.733-1.797l.842-.312a.21.21 0 0 1 .06-.013c.063 0 .116.047.157.14.04.095.061.221.061.38 0 .451-.104.888-.312 1.31-.207.422-.532.873-.974 1.352-.018.23-.027.388-.027.474 0 .193.036.345.106.458.071.113.165.169.282.169a.71.71 0 0 0 .382-.13c.132-.084.333-.26.602-.523.028-.418.187-.798.482-1.142.324-.38.685-.569 1.08-.569.206 0 .37.054.494.16a.524.524 0 0 1 .186.417c0 .458-.486.829-1.459 1.114.088.43.32.646.693.646a.807.807 0 0 0 .417-.117c.129-.076.321-.243.575-.497.032-.252.118-.495.259-.728.182-.3.416-.544.701-.73.285-.185.537-.278.756-.278.276 0 .47.127.58.381l.677-.374h.186l-.292.971c-.15.488-.226.823-.226 1.004 0 .19.067.285.202.285.086 0 .181-.045.285-.137.104-.092.25-.232.437-.42v.001c.143-.155.274-.32.392-.494-.19-.084-.285-.21-.285-.375 0-.17.058-.352.174-.545.116-.194.275-.29.479-.29.172 0 .258.088.258.265 0 .139-.05.338-.149.596.367-.04.687-.32.961-.842l.228-.01c1.059-2.438.828-5.075-.83-6.732-1.019-1.02-2.408-1.5-3.895-1.471zm4.725 8.203a8.938 8.938 0 0 1-1.333 2.151 1.09 1.09 0 0 0-.012.147c0 .168.047.309.14.423.092.113.206.17.34.17.296 0 .714-.264 1.254-.787-.001.04-.003.08-.003.121 0 .146.012.368.036.666l.733-.172c0-.2.003-.357.01-.474.01-.157.033-.33.066-.517.02-.11.07-.216.152-.315l.186-.216a5.276 5.276 0 0 1 .378-.397c.062-.055.116-.099.162-.13a.26.26 0 0 1 .123-.046c.055 0 .083.035.083.106 0 .07-.052.236-.156.497-.194.486-.292.848-.292 1.084 0 .175.046.314.136.418a.45.45 0 0 0 .358.155c.365 0 .803-.269 1.313-.808v-.381c-.361.426-.623.64-.784.64-.109 0-.163-.067-.163-.2 0-.1.065-.316.195-.65.19-.486.285-.836.285-1.048a.464.464 0 0 0-.112-.319.36.36 0 0 0-.282-.127c-.165 0-.354.077-.567.233-.213.156-.5.436-.863.84.053-.262.165-.622.335-1.08l-.809.156a6.54 6.54 0 0 0-.399 1.074c-.04.156-.07.316-.092.48a7.447 7.447 0 0 1-.49.45.38.38 0 0 1-.229.08.208.208 0 0 1-.174-.082.352.352 0 0 1-.064-.222c0-.1.019-.214.056-.343.038-.13.12-.373.249-.731l.308-.849zm-17.21-2.927c-.863-.016-1.67.263-2.261.854-1.352 1.352-1.07 3.827.631 5.527 1.7 1.701 4.95 1.21 5.527.632.467-.466 1.07-3.827-.631-5.527-.957-.957-2.158-1.465-3.267-1.486zm12.285.358h.166v.21H15.4zm.427 0h.166v.865l.46-.455h.195l-.364.362.428.684h-.198l-.357-.575-.164.166v.41h-.166zm1.016 0h.166v.21h-.166zm.481.122h.166v.288h.172v.135h-.172v.717c0 .037.006.062.02.075.012.013.037.02.074.02a.23.23 0 0 0 .078-.01v.141a.802.802 0 0 1-.136.014.23.23 0 0 1-.15-.043.15.15 0 0 1-.052-.123v-.79h-.141v-.136h.141zm-3.562.258c.081 0 .15.012.207.038.057.024.1.061.13.11s.045.106.045.173h-.176c-.006-.111-.075-.167-.208-.167a.285.285 0 0 0-.164.041.134.134 0 0 0-.06.117c0 .035.015.065.045.088.03.024.08.044.15.06l.16.039a.47.47 0 0 1 .224.105c.047.046.07.108.07.186a.3.3 0 0 1-.052.175.327.327 0 0 1-.152.116.585.585 0 0 1-.226.041c-.136 0-.24-.03-.309-.088-.069-.059-.105-.149-.109-.269h.176c.004.037.01.065.017.084a.166.166 0 0 0 .034.054c.044.043.112.065.204.065a.31.31 0 0 0 .177-.045.139.139 0 0 0 .067-.119.116.116 0 0 0-.038-.09.287.287 0 0 0-.124-.055l-.156-.038a1.248 1.248 0 0 1-.159-.05.359.359 0 0 1-.098-.061.22.22 0 0 1-.058-.083.32.32 0 0 1-.016-.108c0-.096.036-.174.109-.232a.45.45 0 0 1 .29-.087zm1.035 0a.46.46 0 0 1 .202.043.351.351 0 0 1 .187.212.577.577 0 0 1 .023.126h-.168a.256.256 0 0 0-.078-.168.242.242 0 0 0-.17-.06.248.248 0 0 0-.155.05.306.306 0 0 0-.1.144.662.662 0 0 0-.034.224.58.58 0 0 0 .035.214.299.299 0 0 0 .101.135.261.261 0 0 0 .157.048c.142 0 .227-.084.256-.252h.167a.519.519 0 0 1-.065.22.35.35 0 0 1-.146.138.464.464 0 0 1-.216.048.448.448 0 0 1-.246-.066.441.441 0 0 1-.161-.192.703.703 0 0 1-.057-.293c0-.085.01-.163.032-.233a.522.522 0 0 1 .095-.182.403.403 0 0 1 .15-.117.453.453 0 0 1 .191-.04zm.603.03h.166v1.046H15.4zm1.443 0h.166v1.046h-.166zm-5.05.618c-.08 0-.2.204-.356.611-.155.407-.308.977-.459 1.71.281-.312.509-.662.683-1.05.175-.387.262-.72.262-.999a.455.455 0 0 0-.036-.197c-.025-.05-.056-.075-.093-.075zm4.662 1.797c-.221 0-.431.188-.629.563-.197.376-.296.722-.296 1.038 0 .12.029.216.088.29a.273.273 0 0 0 .223.111c.221 0 .43-.188.625-.565.196-.377.294-.725.294-1.043a.457.457 0 0 0-.083-.29.269.269 0 0 0-.222-.104zm-2.848.007c-.146 0-.285.11-.417.333-.133.222-.2.51-.2.866.566-.159.849-.452.849-.881 0-.212-.077-.318-.232-.318Z" fill="#F7931E"/></g>
  </g>
  <g transform="translate(600,0)">
    <rect width="256" height="256" rx="60" fill="#242938"/>
    <g transform="translate(48,48) scale(6.66667)"><path d="M12.025 1.13c-5.77 0-10.449 4.647-10.449 10.378 0 1.112.178 2.181.503 3.185.064-.222.203-.444.416-.577a.96.96 0 0 1 .524-.15c.293 0 .584.124.84.284.278.173.48.408.71.694.226.282.458.611.684.951v-.014c.017-.324.106-.622.264-.874s.403-.487.762-.543c.3-.047.596.06.787.203s.31.313.4.467c.15.257.212.468.233.542.01.026.653 1.552 1.657 2.54.616.605 1.01 1.223 1.082 1.912.055.537-.096 1.059-.38 1.572.637.121 1.294.187 1.967.187.657 0 1.298-.063 1.921-.178-.287-.517-.44-1.041-.384-1.581.07-.69.465-1.307 1.081-1.913 1.004-.987 1.647-2.513 1.657-2.539.021-.074.083-.285.233-.542.09-.154.208-.323.4-.467a1.08 1.08 0 0 1 .787-.203c.359.056.604.29.762.543s.247.55.265.874v.015c.225-.34.457-.67.683-.952.23-.286.432-.52.71-.694.257-.16.547-.284.84-.285a.97.97 0 0 1 .524.151c.228.143.373.388.43.625l.006.04a10.3 10.3 0 0 0 .534-3.273c0-5.731-4.678-10.378-10.449-10.378M8.327 6.583a1.5 1.5 0 0 1 .713.174 1.487 1.487 0 0 1 .617 2.013c-.183.343-.762-.214-1.102-.094-.38.134-.532.914-.917.71a1.487 1.487 0 0 1 .69-2.803m7.486 0a1.487 1.487 0 0 1 .689 2.803c-.385.204-.536-.576-.916-.71-.34-.12-.92.437-1.103.094a1.487 1.487 0 0 1 .617-2.013 1.5 1.5 0 0 1 .713-.174m-10.68 1.55a.96.96 0 1 1 0 1.921.96.96 0 0 1 0-1.92m13.838 0a.96.96 0 1 1 0 1.92.96.96 0 0 1 0-1.92M8.489 11.458c.588.01 1.965 1.157 3.572 1.164 1.607-.007 2.984-1.155 3.572-1.164.196-.003.305.12.305.454 0 .886-.424 2.328-1.563 3.202-.22-.756-1.396-1.366-1.63-1.32q-.011.001-.02.006l-.044.026-.01.008-.03.024q-.018.017-.035.036l-.032.04a1 1 0 0 0-.058.09l-.014.025q-.049.088-.11.19a1 1 0 0 1-.083.116 1.2 1.2 0 0 1-.173.18q-.035.029-.075.058a1.3 1.3 0 0 1-.251-.243 1 1 0 0 1-.076-.107c-.124-.193-.177-.363-.337-.444-.034-.016-.104-.008-.2.022q-.094.03-.216.087-.06.028-.125.063l-.13.074q-.067.04-.136.086a3 3 0 0 0-.135.096 3 3 0 0 0-.26.219 2 2 0 0 0-.12.121 2 2 0 0 0-.106.128l-.002.002a2 2 0 0 0-.09.132l-.001.001a1.2 1.2 0 0 0-.105.212q-.013.036-.024.073c-1.139-.875-1.563-2.317-1.563-3.203 0-.334.109-.457.305-.454m.836 10.354c.824-1.19.766-2.082-.365-3.194-1.13-1.112-1.789-2.738-1.789-2.738s-.246-.945-.806-.858-.97 1.499.202 2.362c1.173.864-.233 1.45-.685.64-.45-.812-1.683-2.896-2.322-3.295s-1.089-.175-.938.647 2.822 2.813 2.562 3.244-1.176-.506-1.176-.506-2.866-2.567-3.49-1.898.473 1.23 2.037 2.16c1.564.932 1.686 1.178 1.464 1.53s-3.675-2.511-4-1.297c-.323 1.214 3.524 1.567 3.287 2.405-.238.839-2.71-1.587-3.216-.642-.506.946 3.49 2.056 3.522 2.064 1.29.33 4.568 1.028 5.713-.624m5.349 0c-.824-1.19-.766-2.082.365-3.194 1.13-1.112 1.789-2.738 1.789-2.738s.246-.945.806-.858.97 1.499-.202 2.362c-1.173.864.233 1.45.685.64.451-.812 1.683-2.896 2.322-3.295s1.089-.175.938.647-2.822 2.813-2.562 3.244 1.176-.506 1.176-.506 2.866-2.567 3.49-1.898-.473 1.23-2.037 2.16c-1.564.932-1.686 1.178-1.464 1.53s3.675-2.511 4-1.297c.323 1.214-3.524 1.567-3.287 2.405.238.839 2.71-1.587 3.216-.642.506.946-3.49 2.056-3.522 2.064-1.29.33-4.568 1.028-5.713-.624" fill="#FFD21E"/></g>
  </g>
  <g transform="translate(900,0)">
    <rect width="256" height="256" rx="60" fill="#242938"/>
    <rect x="62" y="222" width="132" height="6" fill="#4C557A"/>
    <rect x="88" y="176" width="80" height="24" fill="#F9E2AF"/>
    <rect x="96" y="200" width="16" height="16" fill="#7DCFFF"/>
    <rect x="144" y="200" width="16" height="16" fill="#7DCFFF"/>
    <rect x="121" y="58" width="14" height="120" fill="#7DCFFF" transform="rotate(18 128 178)"/>
    <circle cx="128" cy="176" r="12" fill="#F38BA8"/>
  </g>
  <g transform="translate(1200,0)">
    <rect width="256" height="256" rx="60" fill="#242938"/>
    <text x="128" y="128" text-anchor="middle" dominant-baseline="central" font-family="ui-monospace,Menlo,Consolas,monospace" font-weight="bold" font-size="72" fill="#7DCFFF">SB3</text>
  </g>
</svg>
